<?xml version="1.0" encoding="utf-8"?>
<!-- Generator: Adobe Illustrator 23.1.0, SVG Export Plug-In . SVG Version: 6.00 Build 0)  -->
<svg version="1.1" id="Слой_1" xmlns="http://www.w3.org/2000/svg" xmlns:xlink="http://www.w3.org/1999/xlink" x="0px" y="0px"
	 viewBox="0 0 1000 1000" style="enable-background:new 0 0 1000 1000;" xml:space="preserve">
<style type="text/css">
	.st0{fill:#00BFA5;}
</style>
<g>
	<path class="st0" d="M955.38,44.62C905.86-4.9,823.1-13.23,719.16,19.78c29.34,14.12,57.63,31.12,84.45,51.04
		c46.31-5.98,82.23,1.41,103.2,22.37c21.86,21.86,28.96,59.98,21.53,109.19C916.41,281.32,867,388.82,780.87,503.61
		c-77.22-50.39-181.73-41.69-249.54,26.12c-67.89,67.89-76.53,172.56-25.96,249.81c-113.05,85.14-219.15,134.72-298.02,148
		c-51.61,8.69-91.56,1.84-114.14-20.74c-21.68-21.68-28.84-59.36-21.71-107.98c-19.64-26.75-36.38-54.96-50.28-84.18
		c-34.7,106.07-26.83,190.5,23.41,240.73c52.15,52.15,141.16,58.66,252.98,19.25c11.54-4.07,23.32-8.62,35.34-13.67
		c70.72-29.71,145.63-74.64,219.64-131.08c78.02,58.69,189.34,52.55,260.39-18.49c71.12-71.12,77.19-182.59,18.3-260.63
		c55.78-73.42,100.22-147.67,129.69-217.81c5.72-13.61,10.77-26.91,15.23-39.92C1013.82,183.35,1006.82,96.05,955.38,44.62z
		 M764.41,762.81c-50.97,50.97-133.6,50.98-184.55,0.03c-50.96-50.96-50.94-133.58,0.03-184.55c50.97-50.97,133.6-50.98,184.55-0.03
		C815.39,629.21,815.38,711.84,764.41,762.81z"/>
	<path class="st0" d="M191.56,844.85c13.41,13.41,35.15,13.41,48.57-0.01c13.41-13.41,13.42-35.16,0.01-48.57L215.86,772
		C61.65,617.79,61.68,367.73,215.93,213.48C370.18,59.23,620.24,59.2,774.45,213.41l24.28,24.28c13.41,13.41,35.15,13.41,48.57-0.01
		c13.41-13.41,13.42-35.16,0.01-48.57l-24.28-24.28C641.99-16.19,348.45-16.15,167.37,164.93C-13.7,346-13.74,639.54,167.28,820.57
		L191.56,844.85z"/>
</g>
</svg>
